# xmcd
#
# Track frame offsets:
#	150
#	18998
#	34155
#	46449
#	59960
#	78928
#	95122
#	110688
#	121165
#	145293
#	165213
#	181417
#
# Disc length: 2834 seconds
#
# Revision: 0
# Processed by: cddbd v1.5.1PL0 Copyright (c) Steve Scherf et al.
# Submitted via: dBpowerAMP V4.0
#
DISCID=a30b100c
DTITLE=The Fabulous Thunderbirds - Painted On
DYEAR=2005
DGENRE=Blues
TTITLE0=Hard Knock
TTITLE1=Got To Get Out
TTITLE2=Two-Time Fool
TTITLE3=Love Speaks Louder Than Words
TTITLE4=Painted On
TTITLE5=Feeling My Way Around
TTITLE6=Rock Candy
TTITLE7=Only Daddy That'll Walk The Line
TTITLE8=Postman
TTITLE9=Wild Cherry
TTITLE10=You Torture Me
TTITLE11=When I Am Gone
EXTD=The Fabulous Thunderbirds
EXTT0=
EXTT1=
EXTT2=
EXTT3=
EXTT4=
EXTT5=
EXTT6=
EXTT7=
EXTT8=
EXTT9=
EXTT10=
EXTT11=
PLAYORDER=
